HIERARCHY
ROOT Hips
{
	OFFSET 0.00000 0.00000 0.00000
	CHANNELS 6 Xposition Yposition Zposition Zrotation Yrotation Xrotation 
	JOINT LHipJoint
	{
		OFFSET 0 0 0
		CHANNELS 3 Zrotation Yrotation Xrotation
		JOINT LeftUpLeg
		{
			OFFSET 1.44361 -1.63093 0.70831
			CHANNELS 3 Zrotation Yrotation Xrotation
			JOINT LeftLeg
			{
				OFFSET 2.20103 -6.04728 0.00000
				CHANNELS 3 Zrotation Yrotation Xrotation
				JOINT LeftFoot
				{
					OFFSET 2.54154 -6.98283 0.00000
					CHANNELS 3 Zrotation Yrotation Xrotation
					JOINT LeftToeBase
					{
						OFFSET 0.05971 -0.16406 1.77582
						CHANNELS 3 Zrotation Yrotation Xrotation
						End Site
						{
							OFFSET 0.00000 -0.00000 0.90832
						}
					}
				}
			}
		}
	}
	JOINT RHipJoint
	{
		OFFSET 0 0 0
		CHANNELS 3 Zrotation Yrotation Xrotation
		JOINT RightUpLeg
		{
			OFFSET -1.65838 -1.63093 0.70830
			CHANNELS 3 Zrotation Yrotation Xrotation
			JOINT RightLeg
			{
				OFFSET -2.26926 -6.23475 0.00000
				CHANNELS 3 Zrotation Yrotation Xrotation
				JOINT RightFoot
				{
					OFFSET -2.34808 -6.45129 0.00000
					CHANNELS 3 Zrotation Yrotation Xrotation
					JOINT RightToeBase
					{
						OFFSET -0.18633 -0.51195 1.68539
						CHANNELS 3 Zrotation Yrotation Xrotation
						End Site
						{
							OFFSET -0.00000 -0.00000 0.88927
						}
					}
				}
			}
		}
	}
	JOINT LowerBack
	{
		OFFSET 0 0 0
		CHANNELS 3 Zrotation Yrotation Xrotation
		JOINT Spine
		{
			OFFSET -0.10393 2.01691 0.06920
			CHANNELS 3 Zrotation Yrotation Xrotation
			JOINT Spine1
			{
				OFFSET 0.04092 2.01302 -0.05283
				CHANNELS 3 Zrotation Yrotation Xrotation
				JOINT Neck
				{
					OFFSET 0 0 0
					CHANNELS 3 Zrotation Yrotation Xrotation
					JOINT Neck1
					{
						OFFSET -0.02870 1.58978 -0.03113
						CHANNELS 3 Zrotation Yrotation Xrotation
						JOINT Head
						{
							OFFSET 0.11532 1.54326 -0.29195
							CHANNELS 3 Zrotation Yrotation Xrotation
							End Site
							{
								OFFSET 0.04056 1.59999 -0.09535
							}
						}
					}
				}
				JOINT LeftShoulder
				{
					OFFSET 0 0 0
					CHANNELS 3 Zrotation Yrotation Xrotation
					JOINT LeftArm
					{
						OFFSET 3.30641 1.15764 0.01104
						CHANNELS 3 Zrotation Yrotation Xrotation
						JOINT LeftForeArm
						{
							OFFSET 4.63208 -0.00000 0.00000
							CHANNELS 3 Zrotation Yrotation Xrotation
							JOINT LeftHand
							{
								OFFSET 3.41924 -0.00000 -0.00000
								CHANNELS 3 Zrotation Yrotation Xrotation
								JOINT LeftFingerBase
								{
									OFFSET 0 0 0
									CHANNELS 3 Zrotation Yrotation Xrotation
									JOINT LeftHandIndex1
									{
										OFFSET 0.62537 -0.00000 -0.00000
										CHANNELS 3 Zrotation Yrotation Xrotation
										End Site
										{
											OFFSET 0.50419 -0.00000 -0.00000
										}
									}
								}
								JOINT LThumb
								{
									OFFSET 0 0 0
									CHANNELS 3 Zrotation Yrotation Xrotation
									End Site
									{
										OFFSET 0.51189 -0.00000 0.51189
									}
								}
							}
						}
					}
				}
				JOINT RightShoulder
				{
					OFFSET 0 0 0
					CHANNELS 3 Zrotation Yrotation Xrotation
					JOINT RightArm
					{
						OFFSET -3.78081 1.02180 -0.16609
						CHANNELS 3 Zrotation Yrotation Xrotation
						JOINT RightForeArm
						{
							OFFSET -4.40640 -0.00000 -0.00000
							CHANNELS 3 Zrotation Yrotation Xrotation
							JOINT RightHand
							{
								OFFSET -3.44675 -0.00000 0.00000
								CHANNELS 3 Zrotation Yrotation Xrotation
								JOINT RightFingerBase
								{
									OFFSET 0 0 0
									CHANNELS 3 Zrotation Yrotation Xrotation
									JOINT RightHandIndex1
									{
										OFFSET -0.51367 -0.00000 -0.00000
										CHANNELS 3 Zrotation Yrotation Xrotation
										End Site
										{
											OFFSET -0.41414 -0.00000 -0.00000
										}
									}
								}
								JOINT RThumb
								{
									OFFSET 0 0 0
									CHANNELS 3 Zrotation Yrotation Xrotation
									End Site
									{
										OFFSET -0.42046 -0.00000 0.42046
									}
								}
							}
						}
					}
				}
			}
		}
	}
}
MOTION
Frames: 13
Frame Time: .0083333
8.3666 16.631 23.8654 0 0 0 0 0 0 -21 0 0 0 0 0 0 0 0 0 0 0 0 0 0 21 0 0 0 0 0 0 0 0 0 0 0 0 0 0 0 0 0 0 0 0 0 0 -16 0 0 21 0 0 11 0 0 0 -8 0 0 0 0 0 0 0 0 0 0 0 0 0 0 0 0 0 0 0 0 8 0 0 0 0 0 0 0 0 0 0 0 0 0 0 0 0 0
8.3666 16.6310 23.8654 -179.5440 2.2075 -169.6680 0.0000 0.0000 0.0000 -17.6728 -11.8827 -7.6852 0.5244 4.6407 12.8866 0.8064 -1.5348 -16.5165 8.3006 -16.3359 -53.6382 0.0000 0.0000 0.0000 21.4445 3.1154 -8.7409 -0.2071 -2.9301 8.0843 -0.5934 0.9895 -14.2455 -0.0114 -0.6899 1.8960 -5.4146 2.1068 -8.4156 1.1578 3.3156 -0.0430 4.6435 1.5324 4.3015 -4.0064 0.8686 -8.5995 7.0329 -1.9809 27.0216 2.8238 -1.3176 10.0632 0.0000 -0.0000 0.0000 -93.5493 -2.2985 25.3286 9.3845 -15.7711 -1.3027 -0.0000 -0.0000 25.3628 29.9790 -16.3606 -9.2294 -7.1250 0.0000 -0.0000 1.4513 11.2622 -1.1403 0.0000 -0.0000 0.0000 94.6115 -6.0586 -5.1378 -15.1656 24.3763 -3.2940 0.0000 0.0000 15.7339 -22.3103 -41.7352 15.2781 7.1250 -0.0000 -0.0000 23.8213 -72.7353 -15.9258
8.3680 16.6305 23.8658 -179.6920 2.1686 -169.7270 0.0000 0.0000 0.0000 -17.8768 -11.9224 -7.5180 0.5128 4.5901 12.7429 0.7997 -1.3979 -16.4807 8.4009 -16.4064 -53.9943 0.0000 0.0000 0.0000 21.2821 3.0851 -8.6626 -0.2043 -2.9105 8.0297 -0.5956 0.6201 -14.3807 -0.0383 1.2626 -3.4715 -5.5234 2.0933 -8.4348 1.0726 3.3130 -0.0469 4.6160 1.5294 4.3076 -4.0237 0.9375 -8.6279 7.3231 -1.9664 27.0367 2.9321 -1.2843 10.0751 -0.0000 -0.0000 0.0000 -93.4385 -2.4331 25.8051 9.3507 -15.7176 -1.2935 -0.0000 -0.0000 25.7289 30.0889 -16.2730 -9.2222 -7.1250 0.0000 -0.0000 1.5340 11.3420 -1.2028 -0.0000 -0.0000 0.0000 94.8543 -5.8929 -5.6012 -14.9567 24.0857 -3.2082 0.0000 0.0000 15.5674 -23.7519 -39.9370 15.7743 7.1250 -0.0000 -0.0000 18.8670 -71.6422 -12.0939
8.3692 16.6296 23.8681 -179.6730 2.1599 -169.7490 0.0000 0.0000 0.0000 -17.8484 -11.9064 -7.4107 0.5002 4.5340 12.5839 0.7969 -1.3785 -16.4558 8.4155 -16.4165 -54.0459 0.0000 0.0000 0.0000 21.3314 3.2112 -8.6077 -0.2050 -2.9155 8.0436 -0.5991 0.3436 -14.5112 -0.2213 3.0284 -8.3578 -5.4737 2.1460 -8.4959 1.0149 3.3849 -0.0641 4.5380 1.5667 4.3217 -3.9361 0.9020 -8.6081 7.4659 -2.0945 27.0706 2.9535 -1.3255 10.0935 -0.0000 0.0000 0.0000 -93.2449 -2.4188 26.5722 9.4603 -15.8910 -1.3233 -0.0000 -0.0000 25.9975 30.1859 -15.9269 -9.0691 -7.1250 0.0000 -0.0000 1.6385 11.7158 -1.2722 -0.0000 0.0000 0.0000 95.1298 -5.8329 -6.0657 -14.8979 24.0037 -3.1843 0.0000 0.0000 15.7806 -24.2724 -39.9529 16.1496 7.1250 -0.0000 -0.0000 18.1990 -71.8338 -11.7329
8.3700 16.6294 23.8702 -179.6820 2.1974 -169.7720 0.0000 0.0000 0.0000 -17.8551 -11.8620 -7.2909 0.4852 4.4664 12.3927 0.7914 -1.3356 -16.4087 8.4342 -16.4295 -54.1121 0.0000 0.0000 0.0000 21.3343 3.3091 -8.5863 -0.2077 -2.9340 8.0951 -0.5993 0.2237 -14.5526 -0.7288 5.4544 -15.2094 -5.5003 2.1515 -8.5519 1.0221 3.3982 -0.0596 4.5652 1.5715 4.3544 -3.9360 0.9259 -8.6710 7.5405 -2.0789 27.0894 2.9825 -1.3088 10.1121 -0.0000 -0.0000 0.0000 -93.1759 -2.4705 26.9194 9.5031 -15.9585 -1.3351 -0.0000 -0.0000 26.3056 30.2566 -15.8118 -9.0314 -7.1250 0.0000 -0.0000 1.6987 11.8339 -1.3148 -0.0000 -0.0000 0.0000 95.2336 -5.8204 -6.2612 -14.8917 23.9950 -3.1818 0.0000 0.0000 16.0743 -24.6266 -37.4780 15.5846 7.1250 -0.0000 -0.0000 14.3507 -69.6388 -8.5220
8.3721 16.6296 23.8744 -179.7650 2.2376 -169.8400 0.0000 0.0000 0.0000 -17.9498 -11.8163 -7.1569 0.4733 4.4124 12.2398 0.7852 -1.2939 -16.3540 8.4168 -16.4174 -54.0504 0.0000 0.0000 0.0000 21.2384 3.4558 -8.4998 -0.2091 -2.9442 8.1235 -0.5964 0.4104 -14.4557 -1.5246 7.7963 -22.0971 -5.6300 2.1266 -8.4792 1.0308 3.3728 -0.0791 4.6399 1.5591 4.2885 -4.0015 1.0077 -8.6820 7.6540 -1.9657 27.0431 3.0466 -1.2482 10.0901 -0.0000 0.0000 0.0000 -93.1312 -2.5859 26.8208 9.3839 -15.7702 -1.3025 -0.0000 -0.0000 26.7427 30.3917 -16.2720 -9.3323 -7.1250 0.0000 -0.0000 1.7335 11.2912 -1.3612 -0.0000 0.0000 0.0000 95.2862 -5.8895 -6.5788 -14.8817 23.9811 -3.1777 0.0000 0.0000 16.7295 -23.2484 -40.9100 15.7131 7.1250 -0.0000 -0.0000 21.1211 -72.3427 -13.8953
8.3735 16.6283 23.8780 -179.7870 2.3044 -169.9310 0.0000 0.0000 0.0000 -17.9755 -11.6868 -7.0088 0.4603 4.3522 12.0698 0.7775 -1.2540 -16.2821 8.3913 -16.3996 -53.9602 0.0000 0.0000 0.0000 21.2239 3.6915 -8.3385 -0.2097 -2.9481 8.1342 -0.6037 0.3206 -14.5742 -0.8049 5.7257 -15.9907 -5.6710 2.1523 -8.3844 1.0064 3.4061 -0.1199 4.6340 1.5800 4.1877 -3.9253 1.0480 -8.6533 7.6908 -1.9429 27.0602 3.0487 -1.2299 10.0891 -0.0000 -0.0000 0.0000 -92.9902 -2.6625 26.5367 9.1981 -15.4756 -1.2525 -0.0000 -0.0000 27.2939 30.5478 -17.0110 -9.7959 -7.1250 0.0000 -0.0000 1.7457 10.4295 -1.4015 -0.0000 -0.0000 0.0000 95.4309 -6.0081 -7.0513 -14.8365 23.9178 -3.1594 0.0000 0.0000 17.3856 -22.5428 -41.0011 15.2339 7.1250 -0.0000 -0.0000 22.1968 -72.1786 -14.5440
8.3719 16.6274 23.8778 -179.7410 2.4082 -169.9940 0.0000 0.0000 0.0000 -17.9386 -11.5089 -6.8448 0.4427 4.2691 11.8350 0.7698 -1.2095 -16.2115 8.4006 -16.4061 -53.9932 0.0000 0.0000 0.0000 21.2854 3.7978 -8.2476 -0.2109 -2.9565 8.1578 -0.6078 0.2299 -14.6545 -0.8371 5.8363 -16.3101 -5.6348 2.1693 -8.4220 1.0208 3.4269 -0.1049 4.6336 1.5891 4.2232 -3.8025 1.0918 -8.6914 7.6098 -1.8883 27.1121 3.0052 -1.2015 10.1109 -0.0000 0.0000 0.0000 -92.8677 -2.7407 26.2505 9.1020 -15.3229 -1.2269 -0.0000 -0.0000 27.7000 30.6069 -17.4962 -10.0845 -7.1250 0.0000 -0.0000 1.7231 9.8717 -1.4028 -0.0000 0.0000 0.0000 95.4979 -6.0420 -7.2041 -14.6644 23.6766 -3.0899 0.0000 0.0000 17.0094 -23.2594 -39.1693 15.1889 7.1250 -0.0000 -0.0000 18.3656 -70.7762 -11.4179
8.3686 16.6273 23.8771 -179.6380 2.4789 -170.0160 0.0000 0.0000 0.0000 -17.8477 -11.4335 -6.7026 0.4291 4.2037 11.6505 0.7676 -1.1589 -16.2009 8.3926 -16.4006 -53.9649 0.0000 0.0000 0.0000 21.4013 3.8040 -8.2405 -0.2123 -2.9662 8.1846 -0.6069 0.2584 -14.6336 -0.8578 5.9064 -16.5130 -5.5331 2.1712 -8.5097 1.0613 3.4230 -0.0530 4.6253 1.5833 4.3305 -3.6841 1.1287 -8.8212 7.4993 -1.8095 27.1193 2.9551 -1.1568 10.1329 0.0000 -0.0000 0.0000 -92.6884 -2.7846 26.3855 9.1650 -15.4230 -1.2436 -0.0000 -0.0000 27.5675 30.5553 -17.6020 -10.1220 -7.1250 0.0000 -0.0000 1.6761 9.7621 -1.3683 0.0000 -0.0000 0.0000 95.5301 -5.9887 -7.3309 -14.5405 23.5022 -3.0403 0.0000 0.0000 16.9164 -23.4937 -38.3284 15.0869 7.1250 -0.0000 -0.0000 16.9015 -70.0754 -10.2287
8.3664 16.6263 23.8776 -179.5950 2.5428 -170.0320 0.0000 0.0000 0.0000 -17.8141 -11.3494 -6.5775 0.4150 4.1351 11.4570 0.7598 -1.0654 -16.1423 8.3980 -16.4043 -53.9840 0.0000 0.0000 0.0000 21.4419 3.8663 -8.2399 -0.2147 -2.9830 8.2316 -0.6075 0.2953 -14.6296 -0.8392 5.8437 -16.3316 -5.5034 2.1783 -8.5297 1.0680 3.4304 -0.0440 4.6178 1.5865 4.3515 -3.6055 1.1155 -8.9273 7.4535 -1.8125 27.0945 2.9253 -1.1481 10.1447 -0.0000 0.0000 0.0000 -92.4392 -2.7680 26.6854 9.2290 -15.5246 -1.2607 -0.0000 -0.0000 27.2348 30.4665 -17.3784 -9.9653 -7.1250 0.0000 -0.0000 1.6468 10.0302 -1.3353 -0.0000 0.0000 0.0000 95.5897 -5.9579 -7.6077 -14.5549 23.5224 -3.0461 0.0000 0.0000 17.8250 -22.3112 -40.9509 15.0536 7.1250 -0.0000 -0.0000 22.4080 -72.0546 -14.6265
8.3662 16.6253 23.8797 -179.5910 2.6488 -170.0620 0.0000 0.0000 0.0000 -17.7926 -11.1983 -6.4616 0.3973 4.0470 11.2089 0.7497 -1.0150 -16.0464 8.3684 -16.3836 -53.8789 0.0000 0.0000 0.0000 21.4431 4.0269 -8.2427 -0.2219 -3.0325 8.3693 -0.6147 0.3214 -14.7076 -0.7756 5.6229 -15.6942 -5.5616 2.1779 -8.5044 1.0945 3.4330 -0.0687 4.6764 1.5889 4.3062 -3.6809 1.0896 -8.8027 7.4852 -1.8351 26.9856 2.9446 -1.1647 10.0823 -0.0000 -0.0000 0.0000 -92.2804 -2.8195 26.4686 9.1445 -15.3904 -1.2382 -0.0000 -0.0000 27.4013 30.3862 -17.0475 -9.7541 -7.1250 0.0000 -0.0000 1.6356 10.4174 -1.3135 -0.0000 -0.0000 0.0000 95.5449 -5.9595 -8.0854 -14.1956 23.0136 -2.9041 0.0000 0.0000 17.6168 -23.8665 -40.8546 16.1414 7.1250 -0.0000 -0.0000 20.2092 -72.5084 -13.3534
8.3655 16.6250 23.8816 -179.5130 2.7598 -170.0990 0.0000 0.0000 0.0000 -17.6838 -11.0163 -6.3240 0.3777 3.9469 10.9274 0.7412 -0.9640 -15.9678 8.3574 -16.3759 -53.8400 0.0000 0.0000 0.0000 21.5344 4.1706 -8.2430 -0.2299 -3.0864 8.5194 -0.6220 0.3416 -14.7890 -0.7210 5.4257 -15.1269 -5.5288 2.1839 -8.4926 1.1386 3.4353 -0.0648 4.7038 1.5903 4.3025 -3.7440 1.0930 -8.7022 7.4943 -1.8198 26.9280 2.9588 -1.1659 10.0406 0.0000 0.0000 0.0000 -92.1437 -2.9401 25.8791 9.0116 -15.1789 -1.2032 -0.0000 -0.0000 27.8552 30.2851 -16.9944 -9.6866 -7.1250 0.0000 -0.0000 1.5761 10.4954 -1.2631 0.0000 0.0000 0.0000 95.5463 -6.0566 -7.5272 -14.1774 22.9877 -2.8970 0.0000 0.0000 16.1444 -26.1386 -42.1643 18.2323 7.1250 -0.0000 -0.0000 19.4851 -74.4870 -13.6872
8.3629 16.6246 23.8807 -179.4490 2.8749 -170.1740 0.0000 0.0000 0.0000 -17.6449 -10.9557 -6.2451 0.3800 3.9590 10.9613 0.7485 -0.8952 -16.0675 8.4033 -16.4080 -54.0027 0.0000 0.0000 0.0000 21.6114 4.2145 -8.1658 -0.2314 -3.0961 8.5465 -0.6193 0.3508 -14.7540 -0.7318 5.4654 -15.2408 -5.4941 2.1962 -8.4935 1.1707 3.4463 -0.0108 4.7211 1.5922 4.3582 -3.7813 1.1340 -8.7388 7.5127 -1.7567 26.9430 2.9794 -1.1372 10.0488 0.0000 0.0000 0.0000 -92.0052 -3.0871 25.1555 8.8654 -14.9456 -1.1652 -0.0000 -0.0000 28.4733 30.3533 -17.1799 -9.8134 -7.1250 0.0000 -0.0000 1.5978 10.2744 -1.2877 0.0000 0.0000 0.0000 95.4829 -5.9489 -8.5461 -14.0920 22.8661 -2.8638 0.0000 0.0000 18.2333 -23.0643 -43.3535 16.2942 7.1250 -0.0000 -0.0000 26.1609 -74.3735 -18.4474
